<svg xmlns="http://www.w3.org/2000/svg" xmlns:xlink="http://www.w3.org/1999/xlink" id="Layer_1" x="0" y="0" version="1.1" viewBox="0 0 24 24" xml:space="preserve" style="enable-background:new 0 0 24 24"><style type="text/css">.st0{fill:url(#SVGID_1_)}.st1{fill:url(#SVGID_2_)}.st2{fill:url(#SVGID_3_)}</style><g><linearGradient id="SVGID_1_" x1="19.251" x2="4.881" y1="4.404" y2="9.634" gradientUnits="userSpaceOnUse"><stop offset="0" style="stop-color:#5cb6a5"/><stop offset=".444" style="stop-color:#9c9"/><stop offset="1" style="stop-color:#f3c07a"/></linearGradient><path d="M12,12.1L7.9,9.7L12,7.4l4.1,2.4L12,12.1z M15.4,4L12,2L8.6,4L12,6L15.4,4z M13.3,6.7l3.3-2.1l3.4,2l-3.3,2.1 L13.3,6.7z M7.3,8.7l-3.4-2l3.4-2l3.4,2L7.3,8.7z" class="st0"/><linearGradient id="SVGID_2_" x1="11.984" x2="20.812" y1="21.423" y2="7.829" gradientUnits="userSpaceOnUse"><stop offset="0" style="stop-color:#927393"/><stop offset=".271" style="stop-color:#757fa3"/><stop offset=".526" style="stop-color:#60a4af"/><stop offset="1" style="stop-color:#81bea5"/></linearGradient><path d="M16.1,14.4L12,16.8l0-4.7l4.1-2.4L16.1,14.4z M17.4,19.1l3.4-2l0-4l-3.4,2L17.4,19.1z M16.1,15.9l0,4l-3.4,2 l0-4L16.1,15.9z M20.8,11.7l-3.4,2.1l0-4l3.4-2L20.8,11.7z" class="st1"/><linearGradient id="SVGID_3_" x1="3.54" x2="11.732" y1="7.701" y2="21.821" gradientUnits="userSpaceOnUse"><stop offset="0" style="stop-color:#f3c07a"/><stop offset=".347" style="stop-color:#ed986c"/><stop offset=".707" style="stop-color:#c5707c"/><stop offset="1" style="stop-color:#ac5a83"/></linearGradient><path d="M6.6,19.3l-3.4-2l0-4l3.4,2L6.6,19.3z M3.2,11.8l3.4,2l0-4l-3.4-2L3.2,11.8z M11.4,18l-3.4-2l0,4l3.4,2 L11.4,18z M12,12.1L7.9,9.7l0,4.7l4.1,2.4L12,12.1z" class="st2"/></g></svg>